STARTFONT 2.1
FONT -FontForge-Permanent Marker-Book-R-Normal--32-320-72-72-P-185-ISO10646-1
SIZE 32 72 72
FONTBOUNDINGBOX 49 46 -9 -10
COMMENT "Generated by fontforge, http://fontforge.sourceforge.net"
COMMENT "Copyright (c) 2010 by Font Diner, Inc. All rights reserved."
STARTPROPERTIES 39
FOUNDRY "FontForge"
FAMILY_NAME "Permanent Marker"
WEIGHT_NAME "Book"
SLANT "R"
SETWIDTH_NAME "Normal"
ADD_STYLE_NAME ""
PIXEL_SIZE 32
POINT_SIZE 320
RESOLUTION_X 72
RESOLUTION_Y 72
SPACING "P"
AVERAGE_WIDTH 185
CHARSET_REGISTRY "ISO10646"
CHARSET_ENCODING "1"
FONTNAME_REGISTRY ""
CHARSET_COLLECTIONS "ISO10646-1"
FONT_NAME "PermanentMarker-Regular"
FACE_NAME "Permanent Marker Regular"
COPYRIGHT "Copyright (c) 2010 by Font Diner, Inc. All rights reserved."
FONT_VERSION "1.001"
FONT_ASCENT 26
FONT_DESCENT 6
UNDERLINE_POSITION -3
UNDERLINE_THICKNESS 2
X_HEIGHT 18
CAP_HEIGHT 22
RAW_ASCENT 799
RAW_DESCENT 200
NORM_SPACE 12
RELATIVE_WEIGHT 40
RELATIVE_SETWIDTH 50
SUPERSCRIPT_X 0
SUPERSCRIPT_Y 14
SUPERSCRIPT_SIZE 20
SUBSCRIPT_X 0
SUBSCRIPT_Y 4
SUBSCRIPT_SIZE 20
AVG_LOWERCASE_WIDTH 182
AVG_UPPERCASE_WIDTH 217
ENDPROPERTIES
CHARS 230
STARTCHAR space
ENCODING 32
SWIDTH 370 0
DWIDTH 12 0
BBX 1 1 0 0
BITMAP
00
ENDCHAR
STARTCHAR exclam
ENCODING 33
SWIDTH 260 0
DWIDTH 8 0
BBX 9 25 0 -1
BITMAP
0200
0700
0780
0F80
0F00
0F80
0F00
0F00
1F00
1F00
1E00
1E00
3E00
3E00
3E00
3C00
0800
0000
0000
3000
7C00
FC00
F800
7800
3000
ENDCHAR
STARTCHAR quotedbl
ENCODING 34
SWIDTH 492 0
DWIDTH 16 0
BBX 14 16 3 8
BITMAP
3020
3C78
3E7C
7E7C
7CF8
7CF8
F8F8
F9F0
F9F0
F9F0
F1F0
F1E0
F3E0
F1E0
61C0
2080
ENDCHAR
STARTCHAR numbersign
ENCODING 35
SWIDTH 703 0
DWIDTH 23 0
BBX 22 23 1 0
BITMAP
0040C0
00E1C0
01E1E0
01F1E0
01F3E0
01E3E0
1FFFF0
3FFFF8
7FFFFC
3FFFF0
3F8780
078F80
0F8F00
1FFFC0
FFFFF0
FFFFE0
FFFF80
7E3E00
3E7C00
3E7C00
7C7C00
7C7800
383000
ENDCHAR
STARTCHAR dollar
ENCODING 36
SWIDTH 493 0
DWIDTH 16 0
BBX 17 24 1 -1
BITMAP
006000
007000
00F000
00F000
00FE00
07FF00
3FFF80
7FFF00
FE0000
FF8000
FFC000
7FC000
01E000
007000
00F000
01F000
07E000
7FE000
7F8000
7F0000
3F0000
1E0000
1E0000
040000
ENDCHAR
STARTCHAR percent
ENCODING 37
SWIDTH 643 0
DWIDTH 21 0
BBX 20 23 1 0
BITMAP
020010
070070
0F00F0
3F81F0
3F83E0
7BC7E0
77C7C0
FFCF00
7F9E00
7E7C00
00F800
00F000
01E200
07C700
0F8F00
1F1F00
3E3F80
7C7BC0
7873C0
78FFC0
F87F80
F07F00
600000
ENDCHAR
STARTCHAR ampersand
ENCODING 38
SWIDTH 599 0
DWIDTH 19 0
BBX 19 17 0 1
BITMAP
001000
003800
007C00
007800
1EF800
3FFC00
7FF800
FFFF80
FFFFC0
FFFFE0
3FFF00
0BF000
01F000
01F000
03E000
03E000
00C000
ENDCHAR
STARTCHAR quotesingle
ENCODING 39
SWIDTH 265 0
DWIDTH 9 0
BBX 7 16 3 8
BITMAP
30
3C
3E
7E
7C
7C
F8
F8
F8
F8
F0
F0
F0
F0
60
20
ENDCHAR
STARTCHAR parenleft
ENCODING 40
SWIDTH 361 0
DWIDTH 12 0
BBX 14 33 1 -6
BITMAP
000C
003C
007C
00FC
01FC
03F8
07F0
07E0
0FC0
1F80
1F00
3F00
3E00
7E00
7C00
7C00
7C00
7800
F800
F800
F800
F800
F800
F800
F800
F800
7C00
7C00
7C00
3C00
1C00
1C00
0400
ENDCHAR
STARTCHAR parenright
ENCODING 41
SWIDTH 361 0
DWIDTH 12 0
BBX 14 33 -4 -6
BITMAP
00C0
00E0
00F0
00F8
00F8
00FC
007C
007C
007C
007C
007C
007C
007C
007C
007C
007C
00F8
00F8
00F8
01F8
01F0
03F0
03F0
07E0
0FC0
1FC0
3F80
7F00
FE00
FC00
F800
F000
C000
ENDCHAR
STARTCHAR asterisk
ENCODING 42
SWIDTH 673 0
DWIDTH 22 0
BBX 21 16 2 7
BITMAP
038380
078F00
07DF00
07FE00
03FE00
03FFC0
7FFFE0
FFFFF8
FFFFE0
7FFC00
07FE00
07FE00
0F9F00
0F8E00
1F0600
000400
ENDCHAR
STARTCHAR plus
ENCODING 43
SWIDTH 579 0
DWIDTH 19 0
BBX 17 16 0 1
BITMAP
006000
00E000
00F000
01F000
01F000
03F000
0FFC00
FFFF00
7FFF80
7FFF80
7FE000
07C000
07C000
07C000
07C000
078000
ENDCHAR
STARTCHAR comma
ENCODING 44
SWIDTH 204 0
DWIDTH 7 0
BBX 8 11 -4 -6
BITMAP
08
1E
1F
1F
3F
3F
3E
7C
FC
78
10
ENDCHAR
STARTCHAR hyphen
ENCODING 45
SWIDTH 609 0
DWIDTH 20 0
BBX 16 5 1 6
BITMAP
0FFC
FFFE
FFFF
FFFF
7F00
ENDCHAR
STARTCHAR period
ENCODING 46
SWIDTH 228 0
DWIDTH 7 0
BBX 6 6 -1 -1
BITMAP
30
7C
FC
78
78
30
ENDCHAR
STARTCHAR slash
ENCODING 47
SWIDTH 401 0
DWIDTH 13 0
BBX 16 23 -1 0
BITMAP
0003
0007
0007
000F
001F
003F
003E
007C
00F8
01F0
03E0
03C0
07C0
0F80
1F00
3E00
7C00
F800
F800
F800
F000
F000
F000
ENDCHAR
STARTCHAR zero
ENCODING 48
SWIDTH 686 0
DWIDTH 22 0
BBX 21 25 0 -1
BITMAP
000600
001F00
003F80
007F80
00FF80
01FF80
03FF80
07FFC0
0FFFC0
0FE3E0
1FC3E0
3F83E0
3F01F0
7E01F0
7E00F0
7C01F8
7C01F8
FC07F8
FC1FF0
7FFFF0
7FFFE0
7FFFC0
3FFF00
1FFC00
07C000
ENDCHAR
STARTCHAR one
ENCODING 49
SWIDTH 322 0
DWIDTH 10 0
BBX 8 23 1 0
BITMAP
38
3C
3E
3E
3E
3E
1F
1F
1F
1F
3F
3E
3E
7E
7E
7C
FC
FC
FC
F8
F8
F8
70
ENDCHAR
STARTCHAR two
ENCODING 50
SWIDTH 650 0
DWIDTH 21 0
BBX 21 23 2 0
BITMAP
3FF000
7FFC00
FFFE00
FFFF00
FFFF80
7F7F80
003F80
007F80
00FF00
03FE00
07FC00
0FF800
1FE000
3FC000
7F8000
7F0060
FE0FF0
FFFFF0
FFFFF8
FFFFF0
FFFFC0
7FFC00
3F8000
ENDCHAR
STARTCHAR three
ENCODING 51
SWIDTH 561 0
DWIDTH 18 0
BBX 18 23 0 0
BITMAP
00FE00
3FFF00
7FFF80
FFFF80
FFFFC0
FFFF80
FFFF00
6FFE00
0FF800
0FF000
0FF800
1FFC00
0FFE00
03FF00
007F00
001F80
003F80
3FFF00
7FFF00
7FFE00
7FFC00
7FF000
3F0000
ENDCHAR
STARTCHAR four
ENCODING 52
SWIDTH 582 0
DWIDTH 19 0
BBX 16 25 2 -1
BITMAP
0030
0030
0078
4078
E078
E078
F078
F078
F07A
F8FF
FFFF
FFFF
7FFF
7FFC
3FF0
03E0
03E0
03C0
03C0
03C0
03C0
03E0
03E0
03E0
01E0
ENDCHAR
STARTCHAR five
ENCODING 53
SWIDTH 580 0
DWIDTH 19 0
BBX 19 23 2 0
BITMAP
030000
0F8000
1FFFC0
7FFFC0
7FFFE0
FFFFE0
FFFFE0
FFFC00
FF0000
FF0000
FFC000
7FE000
3FF000
0FF000
01F800
007800
00FC00
FFFC00
FFFC00
FFF800
7FF800
7FE000
0F8000
ENDCHAR
STARTCHAR six
ENCODING 54
SWIDTH 500 0
DWIDTH 16 0
BBX 15 23 0 0
BITMAP
00E0
03F0
03F0
07F8
0FF0
0FC0
1F80
1F00
1F00
3E00
3E00
7E78
7DFC
7BFC
FBFE
FFFE
F7FE
F7FE
FFFC
FFF8
FFF0
FFE0
7F00
ENDCHAR
STARTCHAR seven
ENCODING 55
SWIDTH 576 0
DWIDTH 18 0
BBX 20 23 0 0
BITMAP
3FC000
7FFC00
7FFC00
FFFE00
FFFF00
7FFF00
001F00
001F00
001F00
001F00
003FE0
0FFFF0
3FFFF0
3FFFE0
3FFFC0
1FF800
0DF000
03F000
03E000
07C000
07C000
07C000
038000
ENDCHAR
STARTCHAR eight
ENCODING 56
SWIDTH 537 0
DWIDTH 17 0
BBX 17 23 2 0
BITMAP
0FC600
3FC700
7FEF00
7FEF00
FFF780
F9EF80
F8FF80
F87F00
FDFE00
7FFC00
7FF800
3FF000
3FC000
7FC000
7FC000
7BE000
F1E000
79E000
7FE000
7FE000
7FE000
3FC000
1F8000
ENDCHAR
STARTCHAR nine
ENCODING 57
SWIDTH 529 0
DWIDTH 17 0
BBX 16 24 1 -1
BITMAP
01F0
07F8
0FFC
1FFC
3FFE
7F1E
7E7E
FFFF
FFFF
FFFF
7FFE
7FFC
1C3C
0078
0078
0078
0078
00F8
00F0
00F0
00F0
00F0
00E0
0080
ENDCHAR
STARTCHAR colon
ENCODING 58
SWIDTH 241 0
DWIDTH 8 0
BBX 7 15 -1 -1
BITMAP
18
3E
3E
3E
1E
1C
00
00
00
30
7C
FC
78
78
30
ENDCHAR
STARTCHAR semicolon
ENCODING 59
SWIDTH 245 0
DWIDTH 8 0
BBX 10 20 -3 -6
BITMAP
0700
0F80
0F80
0F80
07C0
0700
0000
0000
0000
0800
1E00
1F00
1F00
3F00
3E00
3E00
7C00
FC00
7800
1000
ENDCHAR
STARTCHAR less
ENCODING 60
SWIDTH 625 0
DWIDTH 20 0
BBX 20 14 0 1
BITMAP
0001E0
0007F0
001FF0
00FFE0
0FFF80
7FFC00
FFF000
FF8000
7FE000
3FF800
0FFE00
03FF00
007F80
000780
ENDCHAR
STARTCHAR equal
ENCODING 61
SWIDTH 586 0
DWIDTH 19 0
BBX 18 11 0 3
BITMAP
3FFF80
3FFFC0
7FFFC0
3FFE00
100000
000000
07FE00
FFFF00
FFFF00
FFFC00
700000
ENDCHAR
STARTCHAR greater
ENCODING 62
SWIDTH 634 0
DWIDTH 20 0
BBX 19 14 -1 1
BITMAP
3E0000
1FE000
0FF800
0FFE00
03FF80
007FE0
003FE0
00FFE0
07FFE0
1FFE00
7FF000
FF8000
FE0000
780000
ENDCHAR
STARTCHAR question
ENCODING 63
SWIDTH 556 0
DWIDTH 18 0
BBX 18 25 2 -1
BITMAP
020000
1FFC00
3FFF80
7FFFC0
7FFFC0
7FFFC0
307FC0
001F80
007F80
00FF00
03FE00
07FC00
0FF000
1FC000
1F8000
3E0000
3C0000
000000
000000
E00000
F80000
F80000
F80000
F80000
600000
ENDCHAR
STARTCHAR at
ENCODING 64
SWIDTH 732 0
DWIDTH 23 0
BBX 23 25 0 -1
BITMAP
000E00
001F80
001FC0
001FE0
003FE0
00FCF0
01F878
03F038
0FC1BC
1F8F9C
3F1F9E
7E7F9E
7CFF9E
F9F71E
FBE71C
F3EFBC
F1FFF8
E1FFF0
E0FFC0
F80000
7E0040
3FFFC0
1FFFE0
07FFF0
003F80
ENDCHAR
STARTCHAR A
ENCODING 65
SWIDTH 702 0
DWIDTH 22 0
BBX 24 23 -1 0
BITMAP
000600
000F80
001FC0
003FC0
00FFC0
01FFC0
03FFC0
03FFC0
07FFE0
07F7E0
07E3E0
0FC3F8
0FC3FE
1FFFFF
1FFFFE
3FFFFC
3FFFF8
7E7CF8
7E00F8
7C07F8
FC03F8
7C01F0
3001E0
ENDCHAR
STARTCHAR B
ENCODING 66
SWIDTH 686 0
DWIDTH 22 0
BBX 22 25 -1 -1
BITMAP
000200
01FFC0
1FFFE0
7FFFF0
FFFFF8
FFE1F8
7F83F8
3F87F0
1BDFF0
03FFE0
03FFC0
07FF80
07FFC0
07FFF0
07F0F8
0FC078
0F80FC
1F81FC
1F8FFC
1F3FF8
1FFFF0
3FFFE0
1FFF80
0FFC00
04E000
ENDCHAR
STARTCHAR C
ENCODING 67
SWIDTH 611 0
DWIDTH 20 0
BBX 19 23 0 0
BITMAP
000300
000F80
003FE0
00FFE0
03FFE0
07FFC0
0FFF80
1FF800
3FE000
7FC000
FF0000
FE0000
FC0000
F80000
F80000
F80000
780000
7FF800
7FFF80
3FFFC0
1FFFC0
07FF80
00FF00
ENDCHAR
STARTCHAR D
ENCODING 68
SWIDTH 588 0
DWIDTH 19 0
BBX 18 23 0 0
BITMAP
380000
3E0000
3FC000
3FE000
3FF800
3FFC00
3CFE00
3C1F00
3C0F80
3C07C0
3C03C0
3C03C0
3C07C0
3C0FC0
3C3FC0
7CFF80
7FFF00
7FFE00
FFFC00
7FF000
7FC000
7E0000
380000
ENDCHAR
STARTCHAR E
ENCODING 69
SWIDTH 626 0
DWIDTH 20 0
BBX 21 23 0 0
BITMAP
0003E0
007FF0
07FFF8
1FFFF0
3FFFE0
3FFF00
1FF000
1F8000
1F8200
1FFE00
1FFF80
3FFF80
3FFF00
3FFE00
7E0000
7E0000
FC0080
FC3FC0
FFFFE0
7FFFE0
7FFFC0
7FFF80
3FFC00
ENDCHAR
STARTCHAR F
ENCODING 70
SWIDTH 575 0
DWIDTH 18 0
BBX 24 23 -1 0
BITMAP
0007FC
007FFE
03FFFF
1FFFFF
1FFFC0
1FF800
1FE000
0FE000
07E000
07C000
07C000
7FFF80
7FFFC0
FFFFC0
7FFF80
7FFE00
3F8000
3E0000
3E0000
3C0000
3C0000
3C0000
1C0000
ENDCHAR
STARTCHAR G
ENCODING 71
SWIDTH 789 0
DWIDTH 25 0
BBX 27 23 0 0
BITMAP
00018000
0007E000
001FF000
003FF000
00FFF000
01FFE000
03FF8000
07FE0000
0FF80000
1FF06000
3FC0F800
3F81FE00
7F00FF00
FE00FF80
FC00FFC0
FC007FE0
F807FFC0
FFFFFF80
7FFFFF00
7FFFFC00
3FFFE000
3FFF0000
0FE00000
ENDCHAR
STARTCHAR H
ENCODING 72
SWIDTH 695 0
DWIDTH 22 0
BBX 22 24 0 0
BITMAP
000020
040060
0C00F0
0E00F0
1E00F8
1F00F8
1F80F8
1F80FC
1F00FC
1F00FC
1F01FC
3F01F8
3F07F8
3F7FF8
7FFFF8
7FFFF0
7FFFF0
7FFFF0
FFC7E0
FF07E0
FE07E0
FE07E0
FC03C0
780180
ENDCHAR
STARTCHAR I
ENCODING 73
SWIDTH 515 0
DWIDTH 17 0
BBX 22 23 -1 0
BITMAP
03FFF0
0FFFF8
07FFFC
07FFFC
07FFC0
033E00
003E00
007C00
007C00
007C00
007800
00F800
00F800
01F800
01F000
03F000
03E000
03E000
7FFC00
FFFE00
FFFE00
FFFC00
7C4000
ENDCHAR
STARTCHAR J
ENCODING 74
SWIDTH 668 0
DWIDTH 21 0
BBX 27 23 -1 0
BITMAP
000BFE00
07FFFF80
1FFFFFC0
1FFFFFE0
1FFFFFC0
1FFFE000
0E03E000
0003E000
0007E000
0007C000
0007C000
0007C000
000FC000
000F8000
000F8000
001F8000
001F0000
787F0000
7FFF0000
FFFE0000
7FFC0000
7FF80000
03E00000
ENDCHAR
STARTCHAR K
ENCODING 75
SWIDTH 776 0
DWIDTH 25 0
BBX 25 23 0 0
BITMAP
01C00000
03E00800
03F03E00
07F07F00
07E1FF00
0FE3FF00
0FC7FE00
0FDFF800
1FFFF000
1FFFC000
3FFF8000
3FFE0000
3FFC0000
7FFC0000
7FFE0000
7FFF8000
7FDFFF00
FF8FFF80
FF07FF80
7E03FF80
7E007F00
7C000000
38000000
ENDCHAR
STARTCHAR L
ENCODING 76
SWIDTH 632 0
DWIDTH 20 0
BBX 20 23 0 0
BITMAP
038000
07C000
07E000
07E000
0FC000
0FC000
0FC000
1F8000
1F8000
3F8000
3F0000
3F0000
7E0000
7E0000
7E0000
7C0000
FC0200
FFFF80
FFFFE0
7FFFE0
7FFFF0
3FFFE0
3F8000
ENDCHAR
STARTCHAR M
ENCODING 77
SWIDTH 973 0
DWIDTH 31 0
BBX 31 24 0 0
BITMAP
00200000
00E00020
00F80070
01FC00FC
03FC01FC
03FE03FE
07FE07FE
07FE0FFC
0FFE3FFC
0FFE7FFC
1FFFFFFC
1FFFFFFC
3FFFFEFC
3FFFFCFC
3F3FF0F8
7F3FE1F8
7E0F01F8
FE0001F8
FC0001F8
FC0001F0
FC0001F0
F80001F0
780000E0
70000080
ENDCHAR
STARTCHAR N
ENCODING 78
SWIDTH 684 0
DWIDTH 22 0
BBX 23 23 0 0
BITMAP
018030
01E078
03F07C
03F07E
07F8FE
07F8FC
07F0FC
0FF0F8
0FE0F8
1FF1F8
1FF1F8
3FE1F8
3FE3F0
7FE3F0
7FF7F0
FFFFF0
FEFFE0
FEFFE0
FC7FC0
FC3FC0
781F80
780F00
300000
ENDCHAR
STARTCHAR O
ENCODING 79
SWIDTH 744 0
DWIDTH 24 0
BBX 23 24 0 0
BITMAP
000300
000780
000FC0
001FE0
007FE0
00FFC0
01FFE0
03FFE0
07FFF0
0FF1F0
1FE0F8
3F80F8
3F007C
7F007C
7E003C
7C007E
FC00FE
F803FE
FC3FFC
FFFFFC
7FFFF8
7FFFE0
3FFF80
0FFC00
ENDCHAR
STARTCHAR P
ENCODING 80
SWIDTH 639 0
DWIDTH 20 0
BBX 20 24 1 -1
BITMAP
00FF80
03FFC0
07FFE0
07FFE0
0FFFF0
0FFFF0
0F81F0
1F01F0
3F0FF0
7FFFF0
7FFFF0
FFFFE0
FFFFC0
FFFF00
7FF800
7F0000
7C0000
7C0000
7C0000
FC0000
FC0000
7C0000
780000
200000
ENDCHAR
STARTCHAR Q
ENCODING 81
SWIDTH 744 0
DWIDTH 24 0
BBX 23 25 0 -2
BITMAP
000F80
001FC0
001FE0
001FF0
007FF0
00FFF8
01FFF8
03FC7C
0FF87C
1FE03E
3FC03E
7F983E
7F1F3E
FE1F7E
FC0FFE
F80FFC
F80FFC
F07FF8
FFFFF0
FFFFF0
7FFFF8
3FFCF8
1FE0FC
000078
000030
ENDCHAR
STARTCHAR R
ENCODING 82
SWIDTH 646 0
DWIDTH 21 0
BBX 21 24 0 -1
BITMAP
003C00
007E00
00FF00
01FF80
01FF80
03FFC0
1FEFC0
1FC7E0
1F87E0
3F0FE0
3F7FE0
3FFFC0
3FFF80
7FFF00
7FF800
7FC000
7FE000
7FF800
7FFF00
FDFFF0
78FFF8
783FF8
300FF8
0001F0
ENDCHAR
STARTCHAR S
ENCODING 83
SWIDTH 576 0
DWIDTH 18 0
BBX 22 23 0 0
BITMAP
001FF0
00FFF8
07FFF8
1FFFFC
7FFFFC
7FF908
7F8000
FFE000
FFF800
7FFC00
3FFC00
01FE00
001E00
000F00
001F00
001F00
007F00
01FE00
3FFC00
3FF800
3FF000
3FE000
3F0000
ENDCHAR
STARTCHAR T
ENCODING 84
SWIDTH 607 0
DWIDTH 19 0
BBX 25 24 0 -1
BITMAP
003FFE00
FFFFFF00
FFFFFF80
FFFFFF80
FFFFFE00
7FFC0000
3E7C0000
00FC0000
00F80000
01F80000
01F00000
03F00000
03F00000
03E00000
07E00000
07C00000
07C00000
07800000
07800000
07800000
07C00000
07C00000
03C00000
00800000
ENDCHAR
STARTCHAR U
ENCODING 85
SWIDTH 695 0
DWIDTH 22 0
BBX 21 23 2 0
BITMAP
000060
000070
2000F0
7000F0
7800F8
F800F8
F800F8
FC01F8
FC01F8
F803F0
F803F0
F807F0
F80FE0
F81FC0
F87FC0
F9FF80
FFFF00
FFFE00
FFFC00
7FF800
7FF000
3FC000
1F0000
ENDCHAR
STARTCHAR V
ENCODING 86
SWIDTH 583 0
DWIDTH 19 0
BBX 19 23 2 0
BITMAP
6001C0
E003E0
F007E0
F80FE0
F80FC0
FC1FC0
FC3F80
FC7F00
FC7F00
FCFE00
FCFC00
7DF800
7FF800
7FF000
7FE000
7FE000
7FC000
3FC000
3F8000
3F0000
1F0000
1F0000
0E0000
ENDCHAR
STARTCHAR W
ENCODING 87
SWIDTH 994 0
DWIDTH 32 0
BBX 32 23 1 0
BITMAP
0400000C
0E00000E
0F00401F
1F80E01F
1F81F03F
3F03F83F
3F03F03F
3F07F07E
7E07F07E
7E0FF0FC
7E1FF0FC
7C1FE1FC
FC3FE1F8
FC7FE3F8
FCFFE7F0
FDFFEFF0
FBFFFFE0
FFFCFFE0
FFF8FFC0
7FF07F80
7FE07F80
3F803F00
0C001E00
ENDCHAR
STARTCHAR X
ENCODING 88
SWIDTH 623 0
DWIDTH 20 0
BBX 23 24 -1 -1
BITMAP
0C0008
0F003C
0F807C
0FC0FE
1FE3FE
0FE7FC
0FFFF8
07FFE0
03FFC0
01FF00
01FE00
03FC00
07FE00
0FFF00
1FFF00
3FDF80
3F9FC0
7F0FC0
7E07E0
7C07E0
F803E0
7803C0
7801C0
300000
ENDCHAR
STARTCHAR Y
ENCODING 89
SWIDTH 493 0
DWIDTH 16 0
BBX 18 25 1 -1
BITMAP
000100
700780
7C0FC0
7C1FC0
7C3FC0
7C3F80
7E7F00
7EFE00
3FFC00
3FF800
3FF800
3FF000
1FF000
0FE000
0FC000
1FC000
1F8000
3F8000
3F0000
7E0000
7E0000
FC0000
FC0000
780000
380000
ENDCHAR
STARTCHAR Z
ENCODING 90
SWIDTH 664 0
DWIDTH 21 0
BBX 22 24 0 -1
BITMAP
07FFF0
07FFF8
07FFFC
07FFFC
07FFFC
03C7FC
000FF8
001FE0
003FC0
00FF80
01FF00
07FE00
0FFC00
1FF000
7FE000
7F8000
FF01C0
FE0FF0
FEFFF0
FFFFF0
FFFFC0
7FFF00
7FF800
3F8000
ENDCHAR
STARTCHAR bracketleft
ENCODING 91
SWIDTH 387 0
DWIDTH 12 0
BBX 24 34 -1 -5
BITMAP
001FF8
01FFFE
01FFFF
01FFFF
01FFFC
01F000
01F000
01E000
03E000
03E000
03E000
03C000
07C000
07C000
07C000
078000
0F8000
0F8000
0F8000
1F0000
1F0000
1F0000
1F0000
3E0000
3E0000
3E0000
7C0000
7C0000
7C0000
7FFC00
FFFE00
FFFE00
FFFC00
7C0000
ENDCHAR
STARTCHAR backslash
ENCODING 92
SWIDTH 352 0
DWIDTH 11 0
BBX 7 25 2 -1
BITMAP
80
E0
F0
F0
F0
F8
78
78
78
78
78
38
3C
3C
3C
3C
3C
1E
1E
1E
1E
1E
1E
1E
0C
ENDCHAR
STARTCHAR bracketright
ENCODING 93
SWIDTH 403 0
DWIDTH 13 0
BBX 22 34 -9 -5
BITMAP
001FF0
01FFF8
00FFFC
00FFFC
00FFFC
00407C
000078
000078
0000F8
0000F8
0000F8
0001F0
0001F0
0001F0
0001F0
0001E0
0003E0
0003E0
0003C0
0007C0
0007C0
0007C0
000FC0
000F80
000F80
000F80
001F00
001F00
001F00
3FFE00
FFFE00
FFFE00
FFFC00
7C0000
ENDCHAR
STARTCHAR asciicircum
ENCODING 94
SWIDTH 518 0
DWIDTH 17 0
BBX 15 18 0 6
BITMAP
0030
0078
0078
00F8
01F8
01FC
03FC
03FC
07FC
0FBC
0FBC
1F3C
3E3C
7E3C
FC1E
F81E
F00E
600C
ENDCHAR
STARTCHAR underscore
ENCODING 95
SWIDTH 708 0
DWIDTH 23 0
BBX 26 5 -3 -1
BITMAP
07FFF800
FFFFFF00
FFFFFF80
7FFFFFC0
7F800000
ENDCHAR
STARTCHAR grave
ENCODING 96
SWIDTH 754 0
DWIDTH 24 0
BBX 10 10 9 14
BITMAP
2000
7000
7C00
FE00
7F00
3F00
1FC0
0FC0
03C0
0080
ENDCHAR
STARTCHAR a
ENCODING 97
SWIDTH 581 0
DWIDTH 19 0
BBX 20 19 -1 0
BITMAP
001800
003E00
007E00
03FE00
03FE00
07FE00
07FE00
0FDF00
0F9F00
1F8F40
1F0FE0
1FFFF0
3FFFE0
3FFF80
7DFFC0
7807C0
F81F80
780F80
700F00
ENDCHAR
STARTCHAR b
ENCODING 98
SWIDTH 573 0
DWIDTH 18 0
BBX 18 20 -1 -1
BITMAP
07FE00
3FFF00
7FFF80
FFE7C0
7E0F80
7F3F80
17FF00
07FE00
07FC00
0FFE00
0FFF00
0F8380
1F03C0
1F07C0
1E1FC0
3EFFC0
3FFF80
3FFE00
1FF800
09C000
ENDCHAR
STARTCHAR c
ENCODING 99
SWIDTH 513 0
DWIDTH 16 0
BBX 16 19 0 0
BITMAP
001C
007E
01FF
03FF
0FFE
1FFC
3FE0
7F80
7E00
FC00
F800
F000
F000
F000
7F80
7FFC
3FFE
1FFE
07FC
ENDCHAR
STARTCHAR d
ENCODING 100
SWIDTH 497 0
DWIDTH 16 0
BBX 15 19 0 0
BITMAP
3000
3E00
3F80
3FE0
3FF0
39F8
387C
381E
380E
380E
381E
383E
78FE
7BFC
7FF8
FFE0
7FC0
7E00
7800
ENDCHAR
STARTCHAR e
ENCODING 101
SWIDTH 521 0
DWIDTH 17 0
BBX 17 19 0 0
BITMAP
001F00
03FF80
1FFF80
3FFF80
3FFC00
3FC000
1E0000
1FF000
1FFC00
3FFC00
3FFC00
7FF000
7C0000
F80000
F83E00
FFFF00
7FFF00
7FFE00
3FF800
ENDCHAR
STARTCHAR f
ENCODING 102
SWIDTH 455 0
DWIDTH 15 0
BBX 20 19 -1 0
BITMAP
003FC0
01FFE0
0FFFF0
3FFFE0
3FE000
1F8000
0F8000
078000
0F0200
7FFC00
7FFE00
FFFE00
7FFC00
7F8000
3C0000
3C0000
780000
380000
380000
ENDCHAR
STARTCHAR g
ENCODING 103
SWIDTH 652 0
DWIDTH 21 0
BBX 22 19 0 0
BITMAP
000E00
001F00
007F80
01FF80
03FF00
07FC00
0FF000
1FC100
3F8380
7F07E0
7E07F0
FC03F8
F803FC
F00FFC
FFFFF8
7FFFF0
7FFFC0
3FFE00
1FE000
ENDCHAR
STARTCHAR h
ENCODING 104
SWIDTH 582 0
DWIDTH 19 0
BBX 18 21 0 -1
BITMAP
000100
080300
180300
1C0380
1E03C0
3E07C0
3E07C0
3E07C0
3E07C0
3E07C0
3C1FC0
3DFF80
7FFF80
7FFF80
7FFF00
FF9F00
FE1F00
FC1F00
F81F00
780E00
200000
ENDCHAR
STARTCHAR i
ENCODING 105
SWIDTH 320 0
DWIDTH 10 0
BBX 7 19 2 0
BITMAP
18
38
3C
3C
7C
7E
7C
7C
78
F8
F8
F8
F8
F0
F0
F0
F8
78
70
ENDCHAR
STARTCHAR j
ENCODING 106
SWIDTH 534 0
DWIDTH 17 0
BBX 22 19 -1 0
BITMAP
003FF8
1FFFF8
1FFFFC
1FFFFC
1FFF18
0C0F00
001F00
001F00
001E00
001E00
003E00
003E00
003C00
007C00
70FC00
FFF800
FFF000
7FE000
2FC000
ENDCHAR
STARTCHAR k
ENCODING 107
SWIDTH 645 0
DWIDTH 21 0
BBX 21 20 0 -1
BITMAP
030000
0780C0
07C1E0
0FC7F0
0F8FF0
1FBFE0
1F7F80
1FFF00
3FFC00
3FF800
7FF000
7FF000
7FF800
7FFFF0
FE3FF8
FE1FF8
7C0FF8
7801F0
780000
100000
ENDCHAR
STARTCHAR l
ENCODING 108
SWIDTH 533 0
DWIDTH 17 0
BBX 16 20 0 -1
BITMAP
0700
0F80
0F80
0F80
1F00
1F00
1F00
3E00
3E00
3E00
7C00
7C00
7800
F800
FFFC
FFFF
7FFF
7FFF
3F84
0800
ENDCHAR
STARTCHAR m
ENCODING 109
SWIDTH 814 0
DWIDTH 26 0
BBX 26 20 0 -1
BITMAP
01800600
03E00700
03F00F80
07F01FC0
0FF03FC0
0FF07F80
1FF1FF80
1FFFFF80
3FFFFF80
3FFFFF80
3EFFCF80
7EFF8F80
7C7E1F00
FC001F00
F8001F00
F8001F00
F0001E00
70001E00
70000C00
20000000
ENDCHAR
STARTCHAR n
ENCODING 110
SWIDTH 564 0
DWIDTH 18 0
BBX 19 19 0 0
BITMAP
030100
0383C0
07C3E0
07E3E0
0FC7C0
0FC7C0
1FC7C0
1FC780
3FC780
3F8F80
7F8F80
7FDF80
FFFF80
FFFF00
FDFF00
F9FE00
F8FC00
707800
701000
ENDCHAR
STARTCHAR o
ENCODING 111
SWIDTH 628 0
DWIDTH 20 0
BBX 19 20 0 0
BITMAP
000800
003C00
007E00
00FF00
01FE00
03FF00
07FF00
0FFF80
1F8780
3F07C0
3E03C0
7C01C0
7C01E0
F803E0
F807E0
F83FE0
FFFFC0
7FFF80
3FFE00
1FF800
ENDCHAR
STARTCHAR p
ENCODING 112
SWIDTH 524 0
DWIDTH 17 0
BBX 17 20 1 -1
BITMAP
03FC00
07FE00
0FFF00
1FFF00
1FFF00
1E0F80
3E1F80
7CFF80
FFFF00
FFFF00
FFFC00
FFF000
7F0000
780000
F80000
F80000
F80000
F80000
700000
400000
ENDCHAR
STARTCHAR q
ENCODING 113
SWIDTH 625 0
DWIDTH 20 0
BBX 19 21 0 -2
BITMAP
003C00
007E00
007F00
00FF80
01FF80
07FFC0
07F3C0
1FC1E0
3F81E0
7F41E0
7E79E0
FC7FE0
F83FE0
F01FC0
F1FF80
FFFF80
FFFF80
7FFF80
3FC3C0
0803C0
000180
ENDCHAR
STARTCHAR r
ENCODING 114
SWIDTH 541 0
DWIDTH 17 0
BBX 17 20 0 -1
BITMAP
00F000
01F800
03FC00
03FC00
07FE00
1FBE00
3F1F00
3E1F00
3EFF00
3FFE00
7FFC00
7FF800
7FC000
7F8000
7FC000
FFFC00
FBFF80
71FF80
707F80
000F80
ENDCHAR
STARTCHAR s
ENCODING 115
SWIDTH 463 0
DWIDTH 15 0
BBX 18 20 0 -1
BITMAP
007F80
03FF80
1FFFC0
3FFFC0
7FEC80
FF0000
FFC000
FFE000
7FF000
07F000
007800
003800
007800
00F800
03F800
3FF000
3FE000
3FC000
3F0000
380000
ENDCHAR
STARTCHAR t
ENCODING 116
SWIDTH 479 0
DWIDTH 15 0
BBX 21 20 0 -1
BITMAP
00FFF0
FFFFF0
FFFFF8
FFFFF0
7FF800
39F000
01E000
03E000
03E000
07C000
07C000
078000
0F8000
0F0000
0F0000
0F0000
0F0000
0F8000
078000
030000
ENDCHAR
STARTCHAR u
ENCODING 117
SWIDTH 584 0
DWIDTH 19 0
BBX 18 19 2 0
BITMAP
000300
000300
600780
600780
F00780
F007C0
F80780
F80F80
F00F80
F01F00
F03F00
F07E00
F1FE00
FFFC00
FFF800
FFF000
7FE000
7F8000
1E0000
ENDCHAR
STARTCHAR v
ENCODING 118
SWIDTH 485 0
DWIDTH 16 0
BBX 16 19 2 0
BITMAP
400E
E01F
F01F
F03F
F87E
F8FC
F8FC
F9F8
F9F0
FBE0
7FC0
7FC0
7F80
7F00
7F00
3E00
3E00
3E00
1C00
ENDCHAR
STARTCHAR w
ENCODING 119
SWIDTH 825 0
DWIDTH 26 0
BBX 27 19 1 0
BITMAP
08000180
1C0001C0
1E0703E0
3E0703E0
3E0F83E0
3E1F87C0
7C1F87C0
7C3F8FC0
7C3F0F80
787F0F80
F8FF1F00
F8FF3F00
F9FF7E00
F7FFFE00
FFF7FC00
FFE7FC00
7FC3F800
7F01F000
1C01E000
ENDCHAR
STARTCHAR x
ENCODING 120
SWIDTH 506 0
DWIDTH 16 0
BBX 19 20 -1 -1
BITMAP
180040
1E01C0
1F03E0
1F8FE0
1FDFE0
0FFF80
07FF00
03FC00
03F800
07F000
0FF800
1FF800
3FFC00
3F7E00
7E3E00
7C1F00
F81F00
700F00
700E00
200000
ENDCHAR
STARTCHAR y
ENCODING 121
SWIDTH 400 0
DWIDTH 13 0
BBX 15 21 1 -1
BITMAP
0004
601C
783E
787E
78FE
78F8
7DF8
7FF0
3FE0
3FC0
3FC0
1F80
1F80
1F00
3E00
3E00
7C00
7C00
F800
7800
3000
ENDCHAR
STARTCHAR z
ENCODING 122
SWIDTH 547 0
DWIDTH 18 0
BBX 18 20 0 -1
BITMAP
0FFF80
0FFFC0
0FFFC0
0FFFC0
079FC0
003F80
007F00
00FC00
03FC00
0FF000
1FE000
3FC000
7F0000
FE0600
F83F00
FFFF80
FFFF00
FFFE00
7FF000
3F0000
ENDCHAR
STARTCHAR braceleft
ENCODING 123
SWIDTH 448 0
DWIDTH 14 0
BBX 25 34 1 -5
BITMAP
000FFC00
00FFFE00
00FFFF00
00FFFF80
00FFFC00
00F80000
00F00000
00F00000
01F00000
01F00000
01F00000
03E00000
0FE00000
3FE00000
FFC00000
FF000000
FC000000
FE000000
7F800000
3F800000
1F800000
0F800000
0F800000
1F000000
1F000000
1F000000
3E000000
3E000000
3E000000
7FFE0000
7FFF0000
7FFF0000
7FFE0000
3E000000
ENDCHAR
STARTCHAR bar
ENCODING 124
SWIDTH 332 0
DWIDTH 11 0
BBX 11 25 0 -1
BITMAP
0080
01C0
01C0
01C0
03E0
03C0
03C0
07C0
0780
0780
0F00
0F00
0F00
1E00
1E00
1E00
3E00
3C00
7C00
7800
F800
F800
F000
F000
2000
ENDCHAR
STARTCHAR braceright
ENCODING 125
SWIDTH 481 0
DWIDTH 15 0
BBX 24 34 -9 -5
BITMAP
001FF0
01FFF8
01FFFC
01FFFC
00FFFC
004078
0000F8
0000F8
0000F8
0000F0
0001F0
0001F0
0001F0
0003E0
0003F8
0003FC
0001FE
00007F
0000FF
0003FF
0007FE
000FF0
000FC0
000F80
000F80
001F00
001F00
001F00
003E00
3FFE00
FFFE00
FFFC00
FFF800
780000
ENDCHAR
STARTCHAR asciitilde
ENCODING 126
SWIDTH 581 0
DWIDTH 19 0
BBX 18 6 0 7
BITMAP
078080
1FC7C0
3FEF80
7FFF00
F9FF00
F0FC00
ENDCHAR
STARTCHAR uni00A0
ENCODING 160
SWIDTH 370 0
DWIDTH 12 0
BBX 1 1 0 0
BITMAP
00
ENDCHAR
STARTCHAR exclamdown
ENCODING 161
SWIDTH 260 0
DWIDTH 8 0
BBX 8 25 0 -1
BITMAP
04
1F
1F
1F
1F
0E
00
00
10
3C
3C
7C
7C
7C
7C
7C
78
F8
F8
F8
F0
F0
F0
60
40
ENDCHAR
STARTCHAR cent
ENCODING 162
SWIDTH 488 0
DWIDTH 16 0
BBX 15 24 0 -1
BITMAP
0060
0070
00F0
00F8
00FC
01FE
07FE
0FFC
3FE0
3F80
7E00
FC00
F800
F000
7000
7E00
7FFC
3FFC
0FFC
0FF0
1F00
1E00
1E00
0400
ENDCHAR
STARTCHAR sterling
ENCODING 163
SWIDTH 586 0
DWIDTH 19 0
BBX 19 19 0 2
BITMAP
001C00
00FFC0
01FFC0
03FFE0
03F7C0
07C000
07C000
0FF800
FFFC00
7FFE00
7FFE00
7F0000
0F0000
1F0600
5FFF00
FFFF00
FFFF00
7FFF00
7F8000
ENDCHAR
STARTCHAR currency
ENCODING 164
SWIDTH 509 0
DWIDTH 16 0
BBX 16 16 0 1
BITMAP
18C6
3DEE
3FFF
1FFE
1FFC
1FF8
3E78
7C78
7CFC
7FFC
7FF8
7FF8
FFF8
F278
E038
6010
ENDCHAR
STARTCHAR yen
ENCODING 165
SWIDTH 563 0
DWIDTH 18 0
BBX 18 20 0 0
BITMAP
0C0380
0F07C0
0F0FC0
0F1FC0
0F1F80
0FBF00
0FFE00
07FC00
07FC00
1FFE00
FFFF00
7FFF80
7FFF00
3FC000
07C000
0F8000
0F8000
1F0000
0F0000
0E0000
ENDCHAR
STARTCHAR brokenbar
ENCODING 166
SWIDTH 301 0
DWIDTH 10 0
BBX 10 25 0 -1
BITMAP
0080
0180
03C0
03C0
03C0
03C0
0780
0780
0F80
0F00
0F00
0600
0000
0000
0000
3800
3C00
7C00
7800
F800
F800
F000
F000
E000
4000
ENDCHAR
STARTCHAR section
ENCODING 167
SWIDTH 630 0
DWIDTH 20 0
BBX 20 28 0 -3
BITMAP
003FC0
03FFE0
0FFFF0
1FFFE0
1FFFE0
1F8000
1FC000
1FF000
0FFC00
07FF00
1FFF80
3FFFC0
3FFFE0
7E03E0
7E0FE0
3FFFE0
3FFFC0
1FFF80
07FF00
03FF80
00FF80
003F80
003FC0
7FFF80
7FFF80
FFFF00
7FFC00
3FC000
ENDCHAR
STARTCHAR dieresis
ENCODING 168
SWIDTH 754 0
DWIDTH 24 0
BBX 14 6 7 18
BITMAP
1000
7078
F87C
FC7C
F878
7030
ENDCHAR
STARTCHAR copyright
ENCODING 169
SWIDTH 614 0
DWIDTH 20 0
BBX 18 20 1 3
BITMAP
007800
03FE00
0FE700
1F0380
3C1B80
3C7DC0
79FDC0
73F1C0
F7C0C0
E700C0
E600C0
E601C0
E781C0
E7F3C0
E3F780
700F00
783E00
3FFC00
0FF000
01C000
ENDCHAR
STARTCHAR ordfeminine
ENCODING 170
SWIDTH 454 0
DWIDTH 15 0
BBX 15 14 0 7
BITMAP
0080
01E0
03E0
0FE0
1FE0
1FF0
3FF0
3EFC
7FFE
7FFC
FFF8
FBF8
F0F8
F0F0
ENDCHAR
STARTCHAR guillemotleft
ENCODING 171
SWIDTH 566 0
DWIDTH 18 0
BBX 17 15 0 -1
BITMAP
018100
038380
078780
0F8F80
1F1F00
7EFE00
FCFC00
F9F000
F0F000
FCF800
7E7E00
3E3E00
1F1E00
070700
010200
ENDCHAR
STARTCHAR logicalnot
ENCODING 172
SWIDTH 698 0
DWIDTH 22 0
BBX 20 11 0 0
BITMAP
07FF80
FFFFE0
FFFFF0
FFFFF0
7F81F0
0001E0
0003E0
0003E0
0003C0
0003C0
000380
ENDCHAR
STARTCHAR sfthyphen
ENCODING 173
SWIDTH 608 0
DWIDTH 19 0
BBX 16 5 1 6
BITMAP
0FFC
FFFE
FFFF
FFFF
7F00
ENDCHAR
STARTCHAR registered
ENCODING 174
SWIDTH 624 0
DWIDTH 20 0
BBX 19 20 1 3
BITMAP
007800
03FE00
0FE700
0F8380
1E39C0
3C7DC0
78FCC0
79CCE0
739CE0
F3FCE0
E3F8E0
E7C0E0
E7E1C0
E7FFC0
F67F80
701F00
381E00
1FFC00
0FF800
01C000
ENDCHAR
STARTCHAR macron
ENCODING 175
SWIDTH 754 0
DWIDTH 24 0
BBX 12 5 8 19
BITMAP
0780
7FE0
FFF0
FFE0
FA40
ENDCHAR
STARTCHAR degree
ENCODING 176
SWIDTH 284 0
DWIDTH 9 0
BBX 9 10 3 16
BITMAP
0600
0F00
1E00
7F00
7F00
F780
FF80
FF80
FF00
7C00
ENDCHAR
STARTCHAR plusminus
ENCODING 177
SWIDTH 559 0
DWIDTH 18 0
BBX 19 23 -1 -1
BITMAP
001800
003800
007C00
007C00
007C00
00FC00
03FF80
3FFFC0
1FFFE0
1FFFC0
1FF800
01F000
01F000
01F000
01F000
01E000
000000
000000
FFFE00
FFFF00
FFFF80
7FFE00
200000
ENDCHAR
STARTCHAR twosuperior
ENCODING 178
SWIDTH 386 0
DWIDTH 12 0
BBX 12 12 2 11
BITMAP
3E00
FF80
FFC0
7FC0
0FC0
1F80
3F00
7CE0
FFF0
FFF0
7FE0
7C00
ENDCHAR
STARTCHAR threesuperior
ENCODING 179
SWIDTH 366 0
DWIDTH 12 0
BBX 11 12 2 11
BITMAP
0F80
7FC0
FFC0
FFC0
7F80
1F80
1FC0
0FC0
3FE0
3FC0
3FC0
1E00
ENDCHAR
STARTCHAR acute
ENCODING 180
SWIDTH 754 0
DWIDTH 24 0
BBX 10 10 9 14
BITMAP
0100
0380
0F80
1FC0
3F80
7F00
FE00
FC00
F000
4000
ENDCHAR
STARTCHAR mu
ENCODING 181
SWIDTH 569 0
DWIDTH 18 0
BBX 18 20 0 -3
BITMAP
000100
000180
180380
1C03C0
3C03C0
3C03C0
3E0780
3C0780
3C0F80
7C1F00
7C3F00
7DFD00
7FFC00
FFF800
FFF000
FFE000
FF8000
F00000
F00000
E00000
ENDCHAR
STARTCHAR paragraph
ENCODING 182
SWIDTH 729 0
DWIDTH 23 0
BBX 23 25 2 -1
BITMAP
0001F8
00FFFC
07FFFE
1FFFFE
7FFFFE
FFFCF0
FFFCF0
FE7DF0
F879F0
F879E0
7EF9E0
7FF9E0
3FFFE0
0FFFC0
03FFE0
01FFF0
01EFE0
01F7C0
01E780
01E780
01E7C0
03C7C0
03C7C0
03C3C0
008380
ENDCHAR
STARTCHAR periodcentered
ENCODING 183
SWIDTH 226 0
DWIDTH 7 0
BBX 6 6 1 9
BITMAP
10
78
7C
FC
78
70
ENDCHAR
STARTCHAR cedilla
ENCODING 184
SWIDTH 754 0
DWIDTH 24 0
BBX 12 12 8 -10
BITMAP
0400
0F00
1E00
1E00
3F80
1FC0
03E0
00E0
0FF0
FFE0
7FC0
3E00
ENDCHAR
STARTCHAR onesuperior
ENCODING 185
SWIDTH 206 0
DWIDTH 7 0
BBX 5 12 2 11
BITMAP
20
70
78
78
78
78
78
78
F0
F0
F0
60
ENDCHAR
STARTCHAR ordmasculine
ENCODING 186
SWIDTH 445 0
DWIDTH 14 0
BBX 14 15 0 6
BITMAP
00C0
01E0
03F0
0FF0
1FF0
3FF0
3FF8
7E78
7C7C
F8FC
FFFC
FFF8
7FF0
3FC0
0E00
ENDCHAR
STARTCHAR guillemotright
ENCODING 187
SWIDTH 595 0
DWIDTH 19 0
BBX 18 15 -1 -1
BITMAP
202000
383800
3C3C00
3F1F00
1F9F80
0F8FC0
03C3C0
07C7C0
0FCFC0
3FBF40
7E7E00
78FC00
F07000
E0E000
404000
ENDCHAR
STARTCHAR onequarter
ENCODING 188
SWIDTH 705 0
DWIDTH 23 0
BBX 20 25 1 -1
BITMAP
000080
300300
380780
3C0F80
3C0F80
3C1F00
3C3E00
3C3E00
787C00
78F800
79F000
73E080
73C0C0
07D9E0
0FB9E0
1F3DE0
3E3FF0
7C3FF0
781FF0
F80F80
F80780
F00780
F00780
F00780
000100
ENDCHAR
STARTCHAR onehalf
ENCODING 189
SWIDTH 750 0
DWIDTH 24 0
BBX 21 24 1 0
BITMAP
000080
300300
380780
3C0F80
3C0F80
3C1F00
3C3E00
3C3E00
787C00
78F800
79F000
73E000
73C200
07DFC0
0F9FE0
1F1FF0
3E0BF0
7C07E0
780FC0
F81F10
F81FF8
F03FF8
F01FF8
F01F80
ENDCHAR
STARTCHAR threequarters
ENCODING 190
SWIDTH 818 0
DWIDTH 26 0
BBX 23 24 2 -1
BITMAP
7F8018
7FC078
FFC078
FFC0F8
3F01F0
3F83E0
1F87C0
478F80
7F9F00
FFBE00
FE7C10
00F838
01F63C
03E738
07C77C
0F87FE
1F07FC
3E07FC
3C03E0
7C01E0
7801C0
7801E0
7801E0
000080
ENDCHAR
STARTCHAR questiondown
ENCODING 191
SWIDTH 556 0
DWIDTH 18 0
BBX 18 25 -2 -1
BITMAP
000100
000380
0007C0
0007C0
0007C0
0003C0
000000
000000
000800
001F00
003E00
00FE00
01FC00
07F800
1FF000
3FE000
7F8000
7F0000
FE0000
FFFF00
FFFF80
FFFF80
7FFF00
3FFF00
03FC00
ENDCHAR
STARTCHAR Agrave
ENCODING 192
SWIDTH 702 0
DWIDTH 22 0
BBX 24 34 -1 0
BITMAP
000800
001C00
001F00
003F80
001FC0
000FC0
0007F0
0003F0
0000F0
000020
000000
000600
000F80
001FC0
003FC0
00FFC0
01FFC0
03FFC0
03FFC0
07FFE0
07F7E0
07E3E0
0FC3F8
0FC3FE
1FFFFF
1FFFFE
3FFFFC
3FFFF8
7E7CF8
7E00F8
7C07F8
FC03F8
7C01F0
3001E0
ENDCHAR
STARTCHAR Aacute
ENCODING 193
SWIDTH 702 0
DWIDTH 22 0
BBX 24 35 -1 0
BITMAP
000040
0000E0
0001F0
0003F0
0007F0
000FC0
001F80
001F00
001E00
001800
000000
000000
000600
000F80
001FC0
003FC0
00FFC0
01FFC0
03FFC0
03FFC0
07FFE0
07F7E0
07E3E0
0FC3F8
0FC3FE
1FFFFF
1FFFFE
3FFFFC
3FFFF8
7E7CF8
7E00F8
7C07F8
FC03F8
7C01F0
3001E0
ENDCHAR
STARTCHAR Acircumflex
ENCODING 194
SWIDTH 702 0
DWIDTH 22 0
BBX 24 33 -1 0
BITMAP
000300
000780
001FE0
003FF0
007FF8
00FCFC
007878
007038
002010
000000
000600
000F80
001FC0
003FC0
00FFC0
01FFC0
03FFC0
03FFC0
07FFE0
07F7E0
07E3E0
0FC3F8
0FC3FE
1FFFFF
1FFFFE
3FFFFC
3FFFF8
7E7CF8
7E00F8
7C07F8
FC03F8
7C01F0
3001E0
ENDCHAR
STARTCHAR Atilde
ENCODING 195
SWIDTH 702 0
DWIDTH 22 0
BBX 24 31 -1 0
BITMAP
000F87
001FCF
003FFF
003FFE
0079FC
0078F8
000000
000000
000600
000F80
001FC0
003FC0
00FFC0
01FFC0
03FFC0
03FFC0
07FFE0
07F7E0
07E3E0
0FC3F8
0FC3FE
1FFFFF
1FFFFE
3FFFFC
3FFFF8
7E7CF8
7E00F8
7C07F8
FC03F8
7C01F0
3001E0
ENDCHAR
STARTCHAR Adieresis
ENCODING 196
SWIDTH 702 0
DWIDTH 22 0
BBX 24 31 -1 0
BITMAP
001000
007878
007C7C
00FC7C
00787C
007010
000000
000000
000600
000F80
001FC0
003FC0
00FFC0
01FFC0
03FFC0
03FFC0
07FFE0
07F7E0
07E3E0
0FC3F8
0FC3FE
1FFFFF
1FFFFE
3FFFFC
3FFFF8
7E7CF8
7E00F8
7C07F8
FC03F8
7C01F0
3001E0
ENDCHAR
STARTCHAR Aring
ENCODING 197
SWIDTH 702 0
DWIDTH 22 0
BBX 24 31 -1 0
BITMAP
000040
0000E0
0003E0
0007E0
000FF0
000F70
001EF8
001FF8
001FF0
000FC0
001FC0
003FC0
00FFC0
01FFC0
03FFC0
03FFC0
07FFE0
07F7E0
07E3E0
0FC3F8
0FC3FE
1FFFFF
1FFFFE
3FFFFC
3FFFF8
7E7CF8
7E00F8
7C07F8
FC03F8
7C01F0
3001E0
ENDCHAR
STARTCHAR AE
ENCODING 198
SWIDTH 1153 0
DWIDTH 37 0
BBX 40 23 -2 0
BITMAP
000180007C
0003F00FFE
0007F0FFFF
000FF3FFFE
007FF7FFFC
007FF7FFE0
00FFF7FE00
01FFF3F000
01FFF3F040
03FBF3FFC0
03F1F3FFF0
07E1FFFFF0
0FC1FFFFE0
0FFFFFFFC0
1FFFFFC000
3FFFFF8000
3FFFFF8010
7E7CFF07F0
7C01FFFFF8
FC03FFFFFC
F807FFFFF8
F803FFFFF0
7003C7FF80
ENDCHAR
STARTCHAR Ccedilla
ENCODING 199
SWIDTH 611 0
DWIDTH 20 0
BBX 19 33 0 -10
BITMAP
000300
000F80
003FE0
00FFE0
03FFE0
07FFC0
0FFF80
1FF800
3FE000
7FC000
FF0000
FE0000
FC0000
F80000
F80000
F80000
780000
7FF800
7FFF80
3FFFC0
1FFFC0
07FF80
03FF00
078000
070000
0FC000
07F000
03F800
007800
007800
3FF800
1FF000
0FC000
ENDCHAR
STARTCHAR Egrave
ENCODING 200
SWIDTH 626 0
DWIDTH 20 0
BBX 21 35 0 0
BITMAP
006000
007000
00F800
00FC00
00FE00
003F00
001F80
000F80
000780
000100
000000
000000
0003E0
007FF0
07FFF8
1FFFF0
3FFFE0
3FFF00
1FF000
1F8000
1F8200
1FFE00
1FFF80
3FFF80
3FFF00
3FFE00
7E0000
7E0000
FC0080
FC3FC0
FFFFE0
7FFFE0
7FFFC0
7FFF80
3FFC00
ENDCHAR
STARTCHAR Eacute
ENCODING 201
SWIDTH 626 0
DWIDTH 20 0
BBX 21 34 0 0
BITMAP
000080
0001C0
0007C0
000FE0
001FC0
003F80
007F00
007E00
007800
002000
000000
0003E0
007FF0
07FFF8
1FFFF0
3FFFE0
3FFF00
1FF000
1F8000
1F8200
1FFE00
1FFF80
3FFF80
3FFF00
3FFE00
7E0000
7E0000
FC0080
FC3FC0
FFFFE0
7FFFE0
7FFFC0
7FFF80
3FFC00
ENDCHAR
STARTCHAR Ecircumflex
ENCODING 202
SWIDTH 626 0
DWIDTH 20 0
BBX 21 33 0 0
BITMAP
000C00
001E00
003F80
007FC0
01FFE0
01F3F0
01E1E0
01C0E0
008040
000000
0003E0
007FF0
07FFF8
1FFFF0
3FFFE0
3FFF00
1FF000
1F8000
1F8200
1FFE00
1FFF80
3FFF80
3FFF00
3FFE00
7E0000
7E0000
FC0080
FC3FC0
FFFFE0
7FFFE0
7FFFC0
7FFF80
3FFC00
ENDCHAR
STARTCHAR Edieresis
ENCODING 203
SWIDTH 626 0
DWIDTH 20 0
BBX 21 31 0 0
BITMAP
004000
01E1E0
01F1F0
01F1F0
01E1F0
01C040
000000
000000
0003E0
007FF0
07FFF8
1FFFF0
3FFFE0
3FFF00
1FF000
1F8000
1F8200
1FFE00
1FFF80
3FFF80
3FFF00
3FFE00
7E0000
7E0000
FC0080
FC3FC0
FFFFE0
7FFFE0
7FFFC0
7FFF80
3FFC00
ENDCHAR
STARTCHAR Igrave
ENCODING 204
SWIDTH 515 0
DWIDTH 17 0
BBX 22 36 -1 0
BITMAP
006000
007000
00F800
00FC00
00FE00
003F00
001F80
000F80
000780
000100
000000
000000
000000
03FFF0
0FFFF8
07FFFC
07FFFC
07FFC0
033E00
003E00
007C00
007C00
007C00
007800
00F800
00F800
01F800
01F000
03F000
03E000
03E000
7FFC00
FFFE00
FFFE00
FFFC00
7C4000
ENDCHAR
STARTCHAR Iacute
ENCODING 205
SWIDTH 515 0
DWIDTH 17 0
BBX 22 36 -1 0
BITMAP
000030
000070
0000F8
0001F8
0003F8
0007E0
000FC0
000F80
000F00
000400
000000
000000
000000
03FFF0
0FFFF8
07FFFC
07FFFC
07FFC0
033E00
003E00
007C00
007C00
007C00
007800
00F800
00F800
01F800
01F000
03F000
03E000
03E000
7FFC00
FFFE00
FFFE00
FFFC00
7C4000
ENDCHAR
STARTCHAR Icircumflex
ENCODING 206
SWIDTH 515 0
DWIDTH 17 0
BBX 22 34 -1 0
BITMAP
000200
000F80
001FC0
003FE0
007DF0
00F8F8
00F0F8
006030
004020
000000
000000
03FFF0
0FFFF8
07FFFC
07FFFC
07FFC0
033E00
003E00
007C00
007C00
007C00
007800
00F800
00F800
01F800
01F000
03F000
03E000
03E000
7FFC00
FFFE00
FFFE00
FFFC00
7C4000
ENDCHAR
STARTCHAR Idieresis
ENCODING 207
SWIDTH 515 0
DWIDTH 17 0
BBX 22 32 -1 0
BITMAP
001000
007078
00F87C
00FC7C
00F878
007030
000000
000000
000000
03FFF0
0FFFF8
07FFFC
07FFFC
07FFC0
033E00
003E00
007C00
007C00
007C00
007800
00F800
00F800
01F800
01F000
03F000
03E000
03E000
7FFC00
FFFE00
FFFE00
FFFC00
7C4000
ENDCHAR
STARTCHAR Eth
ENCODING 208
SWIDTH 656 0
DWIDTH 21 0
BBX 21 23 0 0
BITMAP
0E0000
0F8000
0FF000
07FC00
0FFE00
0FFF00
0F3FC0
0F07C0
0783E0
FFE1F0
FFF0F0
FFF0F0
FFE0F8
FF83F0
4F0FF0
1F3FE0
1FFFC0
1FFF80
1FFF00
1FFC00
1FF000
1FC000
0E0000
ENDCHAR
STARTCHAR Ntilde
ENCODING 209
SWIDTH 684 0
DWIDTH 22 0
BBX 24 32 0 0
BITMAP
000F87
001FCF
003FFE
007FFE
0079FC
00F0F8
000000
000000
000000
018030
01E078
03F07C
03F07E
07F8FE
07F8FC
07F0FC
0FF0F8
0FE0F8
1FF1F8
1FF1F8
3FE1F8
3FE3F0
7FE3F0
7FF7F0
FFFFF0
FEFFE0
FEFFE0
FC7FC0
FC3FC0
781F80
780F00
300000
ENDCHAR
STARTCHAR Ograve
ENCODING 210
SWIDTH 744 0
DWIDTH 24 0
BBX 23 34 0 0
BITMAP
000600
000700
000F80
000FC0
000FE0
0003F0
0001F8
0000F8
000078
000010
000300
000780
000FC0
001FE0
007FE0
00FFC0
01FFE0
03FFE0
07FFF0
0FF1F0
1FE0F8
3F80F8
3F007C
7F007C
7E003C
7C007E
FC00FE
F803FE
FC3FFC
FFFFFC
7FFFF8
7FFFE0
3FFF80
0FFC00
ENDCHAR
STARTCHAR Oacute
ENCODING 211
SWIDTH 744 0
DWIDTH 24 0
BBX 23 34 0 0
BITMAP
000080
0001C0
0003E0
0007E0
000FE0
001F80
003F00
003E00
003C00
003000
000300
000780
000FC0
001FE0
007FE0
00FFC0
01FFE0
03FFE0
07FFF0
0FF1F0
1FE0F8
3F80F8
3F007C
7F007C
7E003C
7C007E
FC00FE
F803FE
FC3FFC
FFFFFC
7FFFF8
7FFFE0
3FFF80
0FFC00
ENDCHAR
STARTCHAR Ocircumflex
ENCODING 212
SWIDTH 744 0
DWIDTH 24 0
BBX 23 33 0 0
BITMAP
000180
0007C0
000FE0
001FF0
003EF8
007C7C
007C3C
003018
001008
000300
000780
000FC0
001FE0
007FE0
00FFC0
01FFE0
03FFE0
07FFF0
0FF1F0
1FE0F8
3F80F8
3F007C
7F007C
7E003C
7C007E
FC00FE
F803FE
FC3FFC
FFFFFC
7FFFF8
7FFFE0
3FFF80
0FFC00
ENDCHAR
STARTCHAR Otilde
ENCODING 213
SWIDTH 744 0
DWIDTH 24 0
BBX 24 31 0 0
BITMAP
000F87
001FCF
003FFE
007FFE
0079FC
00F0F8
000000
000300
000780
000FC0
001FE0
007FE0
00FFC0
01FFE0
03FFE0
07FFF0
0FF1F0
1FE0F8
3F80F8
3F007C
7F007C
7E003C
7C007E
FC00FE
F803FE
FC3FFC
FFFFFC
7FFFF8
7FFFE0
3FFF80
0FFC00
ENDCHAR
STARTCHAR Odieresis
ENCODING 214
SWIDTH 744 0
DWIDTH 24 0
BBX 23 31 0 0
BITMAP
000800
007878
007C7C
007C7E
00787C
003010
000000
000300
000780
000FC0
001FE0
007FE0
00FFC0
01FFE0
03FFE0
07FFF0
0FF1F0
1FE0F8
3F80F8
3F007C
7F007C
7E003C
7C007E
FC00FE
F803FE
FC3FFC
FFFFFC
7FFFF8
7FFFE0
3FFF80
0FFC00
ENDCHAR
STARTCHAR multiply
ENCODING 215
SWIDTH 490 0
DWIDTH 16 0
BBX 16 17 0 0
BITMAP
2000
380E
3C1E
3E7F
1FFE
1FF8
0FF0
07C0
0FC0
1FC0
3FE0
7DF0
F8F0
F078
E078
E070
6020
ENDCHAR
STARTCHAR Oslash
ENCODING 216
SWIDTH 744 0
DWIDTH 24 0
BBX 23 28 0 -4
BITMAP
000304
00078C
000FDC
001FFE
007FFC
00FFFC
01FFFC
03FFF8
07FFF0
0FF7F0
1FEFF8
3F8FF8
3F1FFC
7F3F7C
7E7E3C
7CFC7E
FCFCFE
F9FBFE
FFFFFC
FFFFFC
7FFFF8
7FFFE0
3FFF80
1FFC00
1F0000
1F0000
1F0000
0E0000
ENDCHAR
STARTCHAR Ugrave
ENCODING 217
SWIDTH 695 0
DWIDTH 22 0
BBX 21 32 2 0
BITMAP
030000
078000
07C000
0FE000
07F000
03F800
01FC00
007C00
003C00
000860
000070
2000F0
7000F0
7800F8
F800F8
F800F8
FC01F8
FC01F8
F803F0
F803F0
F807F0
F80FE0
F81FC0
F87FC0
F9FF80
FFFF00
FFFE00
FFFC00
7FF800
7FF000
3FC000
1F0000
ENDCHAR
STARTCHAR Uacute
ENCODING 218
SWIDTH 695 0
DWIDTH 22 0
BBX 21 34 2 0
BITMAP
000180
000380
0007C0
000FC0
001FC0
003F00
007E00
007C00
007800
002000
000000
000060
000070
2000F0
7000F0
7800F8
F800F8
F800F8
FC01F8
FC01F8
F803F0
F803F0
F807F0
F80FE0
F81FC0
F87FC0
F9FF80
FFFF00
FFFE00
FFFC00
7FF800
7FF000
3FC000
1F0000
ENDCHAR
STARTCHAR Ucircumflex
ENCODING 219
SWIDTH 695 0
DWIDTH 22 0
BBX 21 33 2 0
BITMAP
001000
007C00
00FE00
01FF00
03EF80
07C7C0
0787C0
030180
020100
000000
000060
000070
2000F0
7000F0
7800F8
F800F8
F800F8
FC01F8
FC01F8
F803F0
F803F0
F807F0
F80FE0
F81FC0
F87FC0
F9FF80
FFFF00
FFFE00
FFFC00
7FF800
7FF000
3FC000
1F0000
ENDCHAR
STARTCHAR Udieresis
ENCODING 220
SWIDTH 695 0
DWIDTH 22 0
BBX 21 31 2 0
BITMAP
008000
0383C0
07C7C0
07C7E0
07C7C0
038180
000000
000000
000060
000070
2000F0
7000F0
7800F8
F800F8
F800F8
FC01F8
FC01F8
F803F0
F803F0
F807F0
F80FE0
F81FC0
F87FC0
F9FF80
FFFF00
FFFE00
FFFC00
7FF800
7FF000
3FC000
1F0000
ENDCHAR
STARTCHAR Yacute
ENCODING 221
SWIDTH 493 0
DWIDTH 16 0
BBX 18 37 1 -1
BITMAP
000300
000780
000F80
001F80
003F80
007F00
00FC00
00F800
00F000
004000
000000
000000
000100
700780
7C0FC0
7C1FC0
7C3FC0
7C3F80
7E7F00
7EFE00
3FFC00
3FF800
3FF800
3FF000
1FF000
0FE000
0FC000
1FC000
1F8000
3F8000
3F0000
7E0000
7E0000
FC0000
FC0000
780000
380000
ENDCHAR
STARTCHAR Thorn
ENCODING 222
SWIDTH 680 0
DWIDTH 22 0
BBX 21 23 1 0
BITMAP
0C0000
1E0000
1E0000
3E0000
3FFC00
3FFF80
3FFFE0
3FFFF0
7FFFF0
7E03F8
7E03F8
FC0FF8
FC1FF0
FC7FE0
FFFFC0
FFFF00
FFF800
FFE000
FF0000
FC0000
7C0000
7C0000
780000
ENDCHAR
STARTCHAR germandbls
ENCODING 223
SWIDTH 931 0
DWIDTH 30 0
BBX 33 20 0 -1
BITMAP
007F80FF00
03FF87FF00
1FFFFFFF80
3FFFFFFF80
7FECFFD900
FF01FE0000
FFC1FF8000
FFE1FFC000
7FF0FFE000
07F00FE000
007800F000
0038007000
007800F000
00F801F000
03F807F000
3FF07FE000
3FE0FFC000
3FC0FF8000
3F007E0000
3800600000
ENDCHAR
STARTCHAR agrave
ENCODING 224
SWIDTH 581 0
DWIDTH 19 0
BBX 20 30 -1 0
BITMAP
002000
007000
00F800
00FC00
00FE00
003F00
001F80
000FC0
000780
000180
000000
001800
003E00
007E00
03FE00
03FE00
07FE00
07FE00
0FDF00
0F9F00
1F8F40
1F0FE0
1FFFF0
3FFFE0
3FFF80
7DFFC0
7807C0
F81F80
780F80
700F00
ENDCHAR
STARTCHAR aacute
ENCODING 225
SWIDTH 581 0
DWIDTH 19 0
BBX 20 30 -1 0
BITMAP
000300
000780
000F80
001F80
003F80
007F00
00FC00
00F800
00F000
004000
000000
001800
003E00
007E00
03FE00
03FE00
07FE00
07FE00
0FDF00
0F9F00
1F8F40
1F0FE0
1FFFF0
3FFFE0
3FFF80
7DFFC0
7807C0
F81F80
780F80
700F00
ENDCHAR
STARTCHAR acircumflex
ENCODING 226
SWIDTH 581 0
DWIDTH 19 0
BBX 20 29 -1 0
BITMAP
000800
003E00
007F00
00FF80
01F7C0
03E3E0
03C1E0
0180C0
010080
000000
001800
003E00
007E00
03FE00
03FE00
07FE00
07FE00
0FDF00
0F9F00
1F8F40
1F0FE0
1FFFF0
3FFFE0
3FFF80
7DFFC0
7807C0
F81F80
780F80
700F00
ENDCHAR
STARTCHAR atilde
ENCODING 227
SWIDTH 581 0
DWIDTH 19 0
BBX 21 27 -1 0
BITMAP
007C38
00FE78
01FFF8
03FFF0
03CFE0
0387C0
000000
000000
001800
003E00
007E00
03FE00
03FE00
07FE00
07FE00
0FDF00
0F9F00
1F8F40
1F0FE0
1FFFF0
3FFFE0
3FFF80
7DFFC0
7807C0
F81F80
780F80
700F00
ENDCHAR
STARTCHAR adieresis
ENCODING 228
SWIDTH 581 0
DWIDTH 19 0
BBX 20 28 -1 0
BITMAP
004000
01E1E0
01F1F0
01F1F0
01E1F0
01C040
000000
000000
000000
001800
003E00
007E00
03FE00
03FE00
07FE00
07FE00
0FDF00
0F9F00
1F8F40
1F0FE0
1FFFF0
3FFFE0
3FFF80
7DFFC0
7807C0
F81F80
780F80
700F00
ENDCHAR
STARTCHAR aring
ENCODING 229
SWIDTH 581 0
DWIDTH 19 0
BBX 20 26 -1 0
BITMAP
000700
000F80
001F80
003F80
007FC0
007BC0
007FC0
007FC0
007F80
007E00
03FE00
03FE00
07FE00
07FE00
0FDF00
0F9F00
1F8F40
1F0FE0
1FFFF0
3FFFE0
3FFF80
7DFFC0
7807C0
F81F80
780F80
700F00
ENDCHAR
STARTCHAR ae
ENCODING 230
SWIDTH 948 0
DWIDTH 30 0
BBX 33 19 -2 0
BITMAP
0006001F00
000F03FF80
001F1FFF80
00FF3FFF00
01FF3FFC00
01FF3FC000
03FFBE0000
07EF9FF000
07CFBFF800
0F8FBFFC00
1F8FFFF800
1FFFFFE000
3FFFF80000
3FFFF80000
7DFFF07C00
F807FFFE00
F81FFFFF00
F01FFFFE00
F00F7FF000
ENDCHAR
STARTCHAR ccedilla
ENCODING 231
SWIDTH 513 0
DWIDTH 16 0
BBX 16 28 0 -9
BITMAP
001C
007E
01FF
03FF
0FFE
1FFC
3FE0
7F80
7E00
FC00
F800
F000
F000
F000
7F80
7FFC
3FFE
1FFE
03FC
0700
0F00
0FC0
07E0
01F0
0070
1FF0
3FE0
1FC0
ENDCHAR
STARTCHAR egrave
ENCODING 232
SWIDTH 521 0
DWIDTH 17 0
BBX 17 30 0 0
BITMAP
020000
070000
0F8000
0FC000
0FE000
03F000
01F800
00F800
007800
001000
000000
001F00
03FF80
1FFF80
3FFF80
3FFC00
3FC000
1E0000
1FF000
1FFC00
3FFC00
3FFC00
7FF000
7C0000
F80000
F83E00
FFFF00
7FFF00
7FFE00
3FF800
ENDCHAR
STARTCHAR eacute
ENCODING 233
SWIDTH 521 0
DWIDTH 17 0
BBX 17 30 0 0
BITMAP
000600
000E00
001F00
003F00
007F00
00FC00
01F800
01F000
01E000
008000
000000
001F00
03FF80
1FFF80
3FFF80
3FFC00
3FC000
1E0000
1FF000
1FFC00
3FFC00
3FFC00
7FF000
7C0000
F80000
F83E00
FFFF00
7FFF00
7FFE00
3FF800
ENDCHAR
STARTCHAR ecircumflex
ENCODING 234
SWIDTH 521 0
DWIDTH 17 0
BBX 18 29 0 0
BITMAP
001800
007C00
00FE00
01FF00
03FFC0
07E7C0
03C3C0
038180
010080
000000
001F00
03FF80
1FFF80
3FFF80
3FFC00
3FC000
1E0000
1FF000
1FFC00
3FFC00
3FFC00
7FF000
7C0000
F80000
F83E00
FFFF00
7FFF00
7FFE00
3FF800
ENDCHAR
STARTCHAR edieresis
ENCODING 235
SWIDTH 521 0
DWIDTH 17 0
BBX 19 28 0 0
BITMAP
008000
03C3C0
03E3E0
03E3E0
03C3E0
038080
000000
000000
000000
001F00
03FF80
1FFF80
3FFF80
3FFC00
3FC000
1E0000
1FF000
1FFC00
3FFC00
3FFC00
7FF000
7C0000
F80000
F83E00
FFFF00
7FFF00
7FFE00
3FF800
ENDCHAR
STARTCHAR igrave
ENCODING 236
SWIDTH 320 0
DWIDTH 10 0
BBX 10 30 2 0
BITMAP
3000
7800
7C00
7E00
7F00
3F80
0FC0
07C0
03C0
0080
0000
1800
3800
3C00
3C00
7C00
7E00
7C00
7C00
7800
F800
F800
F800
F800
F000
F000
F000
F800
7800
7000
ENDCHAR
STARTCHAR iacute
ENCODING 237
SWIDTH 320 0
DWIDTH 10 0
BBX 15 31 2 0
BITMAP
0008
001C
007E
00FE
01FE
01F8
03F0
07E0
0380
0300
0000
0000
1800
3800
3C00
3C00
7C00
7E00
7C00
7C00
7800
F800
F800
F800
F800
F000
F000
F000
F800
7800
7000
ENDCHAR
STARTCHAR icircumflex
ENCODING 238
SWIDTH 320 0
DWIDTH 10 0
BBX 13 29 1 0
BITMAP
0300
0780
1FC0
3FE0
7FF8
FCF8
7878
7038
2010
0000
0C00
1C00
1E00
1E00
3E00
3F00
3E00
3E00
3C00
7C00
7C00
7C00
7C00
7800
7800
7800
7C00
3C00
3800
ENDCHAR
STARTCHAR idieresis
ENCODING 239
SWIDTH 320 0
DWIDTH 10 0
BBX 14 28 1 0
BITMAP
1000
7078
F87C
FC7C
F878
7030
0000
0000
0000
0C00
1C00
1E00
1E00
3E00
3F00
3E00
3E00
3C00
7C00
7C00
7C00
7C00
7800
7800
7800
7C00
3C00
3800
ENDCHAR
STARTCHAR eth
ENCODING 240
SWIDTH 541 0
DWIDTH 17 0
BBX 18 19 -1 0
BITMAP
0E0000
0F8000
0FF000
0FF800
0FFC00
0E3F00
0F0F00
3F8780
FFC380
FFE3C0
FFC3C0
7F0FC0
0F3F80
1EFF00
1FFE00
1FFC00
1FF000
1FC000
0E0000
ENDCHAR
STARTCHAR ntilde
ENCODING 241
SWIDTH 564 0
DWIDTH 18 0
BBX 22 28 0 0
BITMAP
003E1C
007F3C
00FFFC
00FFF8
01E7F0
01E3E0
000000
000000
000000
030100
0383C0
07C3E0
07E3E0
0FC7C0
0FC7C0
1FC7C0
1FC780
3FC780
3F8F80
7F8F80
7FDF80
FFFF80
FFFF00
FDFF00
F9FE00
F8FC00
707800
701000
ENDCHAR
STARTCHAR ograve
ENCODING 242
SWIDTH 628 0
DWIDTH 20 0
BBX 19 30 0 0
BITMAP
002000
007000
007C00
00FE00
007F00
003F80
001FC0
000FC0
0003C0
000080
000800
003C00
007E00
00FF00
01FE00
03FF00
07FF00
0FFF80
1F8780
3F07C0
3E03C0
7C01C0
7C01E0
F803E0
F807E0
F83FE0
FFFFC0
7FFF80
3FFE00
1FF800
ENDCHAR
STARTCHAR oacute
ENCODING 243
SWIDTH 628 0
DWIDTH 20 0
BBX 19 30 0 0
BITMAP
000300
000700
000F80
001F80
003F80
007E00
00FC00
00F800
00F000
004000
000800
003C00
007E00
00FF00
01FE00
03FF00
07FF00
0FFF80
1F8780
3F07C0
3E03C0
7C01C0
7C01E0
F803E0
F807E0
F83FE0
FFFFC0
7FFF80
3FFE00
1FF800
ENDCHAR
STARTCHAR ocircumflex
ENCODING 244
SWIDTH 628 0
DWIDTH 20 0
BBX 20 29 0 0
BITMAP
000400
001F00
003F80
007FC0
00FBE0
01F1F0
01E1F0
00C060
008040
000800
003C00
007E00
00FF00
01FE00
03FF00
07FF00
0FFF80
1F8780
3F07C0
3E03C0
7C01C0
7C01E0
F803E0
F807E0
F83FE0
FFFFC0
7FFF80
3FFE00
1FF800
ENDCHAR
STARTCHAR otilde
ENCODING 245
SWIDTH 628 0
DWIDTH 20 0
BBX 22 27 0 0
BITMAP
003E1C
007F3C
00FFFC
00FFF8
01E7F0
01E3E0
000000
000800
003C00
007E00
00FF00
01FE00
03FF00
07FF00
0FFF80
1F8780
3F07C0
3E03C0
7C01C0
7C01E0
F803E0
F807E0
F83FE0
FFFFC0
7FFF80
3FFE00
1FF800
ENDCHAR
STARTCHAR odieresis
ENCODING 246
SWIDTH 628 0
DWIDTH 20 0
BBX 21 28 0 0
BITMAP
002000
00E0F0
01F0F8
01F8F8
01F0F0
00E060
000000
000000
000800
003C00
007E00
00FF00
01FE00
03FF00
07FF00
0FFF80
1F8780
3F07C0
3E03C0
7C01C0
7C01E0
F803E0
F807E0
F83FE0
FFFFC0
7FFF80
3FFE00
1FF800
ENDCHAR
STARTCHAR divide
ENCODING 247
SWIDTH 559 0
DWIDTH 18 0
BBX 17 19 0 0
BITMAP
004000
00E000
01F000
01F800
01F000
00F000
000000
000000
7FFE00
FFFF00
FFFF80
7FFE00
300000
020000
078000
0FC000
0FC000
078000
078000
ENDCHAR
STARTCHAR oslash
ENCODING 248
SWIDTH 632 0
DWIDTH 20 0
BBX 19 24 0 -4
BITMAP
000800
003CE0
003FE0
00FFE0
01FFE0
03FFE0
07FFC0
0FFF80
1FDF80
3F3FC0
3E7FC0
7C79C0
7CF9E0
F9F3E0
FBE7E0
FFFFE0
FFFFC0
7FFF80
3FFF00
1FF800
1F8000
1E0000
1E0000
0C0000
ENDCHAR
STARTCHAR ugrave
ENCODING 249
SWIDTH 584 0
DWIDTH 19 0
BBX 18 30 2 0
BITMAP
060000
070000
0F8000
0FC000
0FE000
03F000
01F800
00F800
007800
001000
000000
000300
000300
600780
600780
F00780
F007C0
F80780
F80F80
F00F80
F01F00
F03F00
F07E00
F1FE00
FFFC00
FFF800
FFF000
7FE000
7F8000
1E0000
ENDCHAR
STARTCHAR uacute
ENCODING 250
SWIDTH 584 0
DWIDTH 19 0
BBX 18 29 2 0
BITMAP
000600
000F00
001F00
003F00
007F00
00FE00
01F800
01F000
01E000
008000
000300
000300
600780
600780
F00780
F007C0
F80780
F80F80
F00F80
F01F00
F03F00
F07E00
F1FE00
FFFC00
FFF800
FFF000
7FE000
7F8000
1E0000
ENDCHAR
STARTCHAR ucircumflex
ENCODING 251
SWIDTH 584 0
DWIDTH 19 0
BBX 18 29 2 0
BITMAP
006000
00F800
01FC00
03FE00
0FFF00
0F9F80
0F0F00
0E0700
040200
000000
000300
000300
600780
600780
F00780
F007C0
F80780
F80F80
F00F80
F01F00
F03F00
F07E00
F1FE00
FFFC00
FFF800
FFF000
7FE000
7F8000
1E0000
ENDCHAR
STARTCHAR udieresis
ENCODING 252
SWIDTH 584 0
DWIDTH 19 0
BBX 18 28 2 0
BITMAP
020000
0F0F00
0F8F80
0F8F80
0F0F80
0E0200
000000
000000
000000
000300
000300
600780
600780
F00780
F007C0
F80780
F80F80
F00F80
F01F00
F03F00
F07E00
F1FE00
FFFC00
FFF800
FFF000
7FE000
7F8000
1E0000
ENDCHAR
STARTCHAR yacute
ENCODING 253
SWIDTH 400 0
DWIDTH 13 0
BBX 16 33 1 -1
BITMAP
0006
000F
001F
003F
007F
00FE
01F8
01F0
01E0
0080
0000
0000
0004
601C
783E
787E
78FE
78F8
7DF8
7FF0
3FE0
3FC0
3FC0
1F80
1F80
1F00
3E00
3E00
7C00
7C00
F800
7800
3000
ENDCHAR
STARTCHAR thorn
ENCODING 254
SWIDTH 579 0
DWIDTH 19 0
BBX 18 20 1 0
BITMAP
080000
180000
3C0000
3C0000
3FF800
7FFE00
7FFF80
7FFF80
7C0FC0
FC1FC0
F83FC0
F8FF80
FFFE00
FFFC00
FFE000
FF8000
FC0000
F80000
780000
700000
ENDCHAR
STARTCHAR ydieresis
ENCODING 255
SWIDTH 400 0
DWIDTH 13 0
BBX 17 29 1 -1
BITMAP
020000
1F0F00
0F0F80
1F8F80
1F0F00
0E0200
000000
000000
000400
601C00
783E00
787E00
78FE00
78F800
7DF800
7FF000
3FE000
3FC000
3FC000
1F8000
1F8000
1F0000
3E0000
3E0000
7C0000
7C0000
F80000
780000
300000
ENDCHAR
STARTCHAR dotlessi
ENCODING 305
SWIDTH 320 0
DWIDTH 10 0
BBX 7 19 2 0
BITMAP
18
38
3C
3C
7C
7E
7C
7C
78
F8
F8
F8
F8
F0
F0
F0
F8
78
70
ENDCHAR
STARTCHAR Lslash
ENCODING 321
SWIDTH 632 0
DWIDTH 20 0
BBX 23 23 -3 0
BITMAP
007000
00F800
00FC00
00FC00
01F800
01F800
01F800
03FC00
03FF00
0FFF00
3FFE00
FFF000
FFC000
7FC000
3FC000
0F8000
1F8040
1FFFF0
1FFFFC
0FFFFC
0FFFFE
07FFFC
07F000
ENDCHAR
STARTCHAR lslash
ENCODING 322
SWIDTH 533 0
DWIDTH 17 0
BBX 19 20 -3 -1
BITMAP
00E000
01F000
01F000
01F000
03E000
03E000
03F800
07FC00
1FFE00
FFF000
FF8000
FF8000
7F0000
1F0000
1FFF80
1FFFE0
0FFFE0
0FFFE0
07F080
010000
ENDCHAR
STARTCHAR OE
ENCODING 338
SWIDTH 1212 0
DWIDTH 39 0
BBX 40 24 0 0
BITMAP
0003000000
000780007C
000FC01FFE
001FE1FFFF
007FE7FFFE
00FFC7FFFC
01FFE7FFE0
03FFE7FE00
07FFF3E000
0FF1F3F040
1FE0FBFFC0
3F80FBFFF0
3F007FFFF0
7F007FFFE0
7E003FFF80
7C007FC000
FC00FF8000
F803FF8010
FC3FFF07F0
FFFFFFFFF8
7FFFFFFFFC
7FFFEFFFF8
3FFF8FFFF0
0FFC07FF80
ENDCHAR
STARTCHAR oe
ENCODING 339
SWIDTH 1010 0
DWIDTH 32 0
BBX 33 20 0 0
BITMAP
0008000000
003C001F00
007F03FF80
00FF1FFF80
01FF3FFF00
03FF3FFC00
07FF3FC000
0FFFBE0000
1F879FF000
3F03FFF800
3E03FFFC00
7C01FFF800
7C01FFE000
F803F80000
F807F80000
F87FF07C00
FFFFFFFE00
7FFFFFFF00
3FFE7FFE00
1FF87FF000
ENDCHAR
STARTCHAR Scaron
ENCODING 352
SWIDTH 576 0
DWIDTH 18 0
BBX 22 34 0 0
BITMAP
008040
00C060
01E1F0
01F3F0
00FBE0
007FC0
003F80
001F00
000400
000000
000000
001FF0
00FFF8
07FFF8
1FFFFC
7FFFFC
7FF908
7F8000
FFE000
FFF800
7FFC00
3FFC00
01FE00
001E00
000F00
001F00
001F00
007F00
01FE00
3FFC00
3FF800
3FF000
3FE000
3F0000
ENDCHAR
STARTCHAR scaron
ENCODING 353
SWIDTH 463 0
DWIDTH 15 0
BBX 18 32 0 -1
BITMAP
040200
0E0700
0F0F00
0F9F80
07FF00
03FE00
01FC00
00F000
006000
000000
000000
000000
007F80
03FF80
1FFFC0
3FFFC0
7FEC80
FF0000
FFC000
FFE000
7FF000
07F000
007800
003800
007800
00F800
03F800
3FF000
3FE000
3FC000
3F0000
380000
ENDCHAR
STARTCHAR Ydieresis
ENCODING 376
SWIDTH 493 0
DWIDTH 16 0
BBX 18 33 1 -1
BITMAP
010000
078780
07C7C0
07C7C0
0787C0
070100
000000
000000
000100
700780
7C0FC0
7C1FC0
7C3FC0
7C3F80
7E7F00
7EFE00
3FFC00
3FF800
3FF800
3FF000
1FF000
0FE000
0FC000
1FC000
1F8000
3F8000
3F0000
7E0000
7E0000
FC0000
FC0000
780000
380000
ENDCHAR
STARTCHAR Zcaron
ENCODING 381
SWIDTH 664 0
DWIDTH 21 0
BBX 23 36 0 -1
BITMAP
001008
00381C
003C3E
003E7E
001FFC
000FF8
0007F0
0003E0
000080
000000
000000
000000
07FFF0
07FFF8
07FFFC
07FFFC
07FFFC
03C7FC
000FF8
001FE0
003FC0
00FF80
01FF00
07FE00
0FFC00
1FF000
7FE000
7F8000
FF01C0
FE0FF0
FEFFF0
FFFFF0
FFFFC0
7FFF00
7FF800
3F8000
ENDCHAR
STARTCHAR zcaron
ENCODING 382
SWIDTH 547 0
DWIDTH 18 0
BBX 20 32 0 -1
BITMAP
008040
00C060
01E1F0
01F3F0
00FBE0
007FC0
003F80
001F00
000400
000000
000000
000000
0FFF80
0FFFC0
0FFFC0
0FFFC0
079FC0
003F80
007F00
00FC00
03FC00
0FF000
1FE000
3FC000
7F0000
FE0600
F83F00
FFFF80
FFFF00
FFFE00
7FF000
3F0000
ENDCHAR
STARTCHAR circumflex
ENCODING 710
SWIDTH 754 0
DWIDTH 24 0
BBX 14 9 7 16
BITMAP
0300
0780
1FE0
3FF0
7FF8
FCFC
7878
7038
2010
ENDCHAR
STARTCHAR caron
ENCODING 711
SWIDTH 754 0
DWIDTH 24 0
BBX 14 9 7 16
BITMAP
2010
7038
7878
FCFC
7FF8
1FE0
0FC0
0780
0300
ENDCHAR
STARTCHAR breve
ENCODING 728
SWIDTH 754 0
DWIDTH 24 0
BBX 14 7 7 18
BITMAP
2010
7038
7878
FFFC
7FF8
3FF0
0FC0
ENDCHAR
STARTCHAR dotaccent
ENCODING 729
SWIDTH 754 0
DWIDTH 24 0
BBX 6 6 11 18
BITMAP
10
F0
78
FC
F8
70
ENDCHAR
STARTCHAR ring
ENCODING 730
SWIDTH 754 0
DWIDTH 24 0
BBX 10 10 9 16
BITMAP
0600
0F00
1F00
3F80
7F80
7380
FFC0
FFC0
7F80
7E00
ENDCHAR
STARTCHAR ogonek
ENCODING 731
SWIDTH 754 0
DWIDTH 24 0
BBX 13 10 9 -9
BITMAP
7000
7000
7000
F000
7000
7C00
7FF0
3FF8
0FF0
0080
ENDCHAR
STARTCHAR tilde
ENCODING 732
SWIDTH 754 0
DWIDTH 24 0
BBX 16 6 6 18
BITMAP
0F06
3FDF
3FFE
7FFE
FBFC
F1F8
ENDCHAR
STARTCHAR hungarumlaut
ENCODING 733
SWIDTH 754 0
DWIDTH 24 0
BBX 18 10 5 14
BITMAP
030100
078380
0F8FC0
1FDFC0
3FBFC0
7F3F00
FE7E00
F8FC00
F07800
406000
ENDCHAR
STARTCHAR endash
ENCODING 8211
SWIDTH 588 0
DWIDTH 19 0
BBX 17 5 0 6
BITMAP
0FFC00
FFFF00
7FFF80
7FFF80
7F0000
ENDCHAR
STARTCHAR emdash
ENCODING 8212
SWIDTH 878 0
DWIDTH 28 0
BBX 26 5 0 6
BITMAP
7FFFFE00
FFFFFF80
7FFFFFC0
7FFFFFC0
3F000000
ENDCHAR
STARTCHAR quoteleft
ENCODING 8216
SWIDTH 203 0
DWIDTH 7 0
BBX 7 10 3 14
BITMAP
3C
7E
7E
7C
FC
F8
F8
F0
F0
10
ENDCHAR
STARTCHAR quoteright
ENCODING 8217
SWIDTH 199 0
DWIDTH 6 0
BBX 8 10 2 14
BITMAP
1C
1E
1F
3F
3E
3E
7C
FC
78
30
ENDCHAR
STARTCHAR quotesinglbase
ENCODING 8218
SWIDTH 204 0
DWIDTH 7 0
BBX 8 11 -4 -6
BITMAP
08
1E
1F
1F
3F
3F
3E
7C
FC
78
10
ENDCHAR
STARTCHAR quotedblleft
ENCODING 8220
SWIDTH 410 0
DWIDTH 13 0
BBX 14 10 3 14
BITMAP
3870
7CFC
7FFC
7DF8
F9F0
FBF0
F9E0
F1E0
F1E0
7040
ENDCHAR
STARTCHAR quotedblright
ENCODING 8221
SWIDTH 425 0
DWIDTH 14 0
BBX 15 10 2 14
BITMAP
1C18
1E3E
1F3E
3F3E
3E7C
3E7C
7CF8
FDF8
79F0
3040
ENDCHAR
STARTCHAR quotedblbase
ENCODING 8222
SWIDTH 430 0
DWIDTH 14 0
BBX 15 11 -4 -6
BITMAP
0810
1E1C
1F3E
1F3E
3F3E
3F7E
3E7C
7CF8
FDF8
78F0
1040
ENDCHAR
STARTCHAR bullet
ENCODING 8226
SWIDTH 299 0
DWIDTH 10 0
BBX 7 7 1 6
BITMAP
38
7C
FE
FE
FC
FC
7C
ENDCHAR
STARTCHAR ellipsis
ENCODING 8230
SWIDTH 768 0
DWIDTH 25 0
BBX 23 6 -1 -1
BITMAP
303018
7C7C3E
FC7C7E
787C3E
787C3C
303018
ENDCHAR
STARTCHAR perthousand
ENCODING 8240
SWIDTH 889 0
DWIDTH 28 0
BBX 28 23 1 0
BITMAP
02001000
07007000
0F00F000
3F81F000
3F83E000
7BC7E000
77C7C000
FFCF0000
7F9E0000
7E7C0000
00F80000
00F00000
01E20080
07C701C0
0F8F03C0
1F1F07C0
3E3F8FE0
7C7BDEE0
7873DCF0
78FFFFF0
F87FBFE0
F07F1FC0
60000000
ENDCHAR
STARTCHAR guilsinglleft
ENCODING 8249
SWIDTH 322 0
DWIDTH 10 0
BBX 9 15 0 -1
BITMAP
0180
0380
0780
0F80
1F00
7E00
FC00
F800
F000
FC00
7E00
3E00
1F00
0700
0100
ENDCHAR
STARTCHAR guilsinglright
ENCODING 8250
SWIDTH 341 0
DWIDTH 11 0
BBX 10 15 -1 -1
BITMAP
2000
3800
3C00
3F00
1F80
0F80
03C0
07C0
0FC0
3F80
7E00
7800
F000
E000
4000
ENDCHAR
STARTCHAR fraction
ENCODING 8260
SWIDTH 541 0
DWIDTH 17 0
BBX 17 24 0 0
BITMAP
000080
000180
000380
000780
000F80
001F80
001F00
003E00
007C00
00F800
01F000
01F000
03E000
07C000
0F8000
1F0000
3E0000
3E0000
7C0000
780000
F80000
F80000
F80000
700000
ENDCHAR
STARTCHAR Euro
ENCODING 8364
SWIDTH 565 0
DWIDTH 18 0
BBX 18 19 -1 0
BITMAP
000780
000FC0
003FC0
00FFC0
01FF80
03FE00
07F800
0FE000
0F8000
7FFE00
FFFF00
7FFF00
7FF800
0F0000
0FFF00
07FF80
03FF80
01FF80
000F00
ENDCHAR
STARTCHAR Delta
ENCODING 8710
SWIDTH 403 0
DWIDTH 13 0
BBX 18 20 -1 -1
BITMAP
07FF80
0FFFC0
0FFFC0
0FFF80
06F000
00F000
00F000
01F000
01E000
01E000
03E000
03C000
03C000
07C000
078000
FFF000
FFF800
FFF000
FF0000
400000
ENDCHAR
STARTCHAR minus
ENCODING 8722
SWIDTH 548 0
DWIDTH 18 0
BBX 16 5 0 6
BITMAP
0FFC
FFFE
FFFF
FFFF
7F00
ENDCHAR
STARTCHAR approxequal
ENCODING 8776
SWIDTH 323 0
DWIDTH 10 0
BBX 8 23 1 0
BITMAP
0E
1E
1E
1F
3F
3F
3F
3F
3E
7E
7E
7E
7C
FC
FC
FC
FC
FC
FC
7C
7C
7C
38
ENDCHAR
STARTCHAR fi
ENCODING 64257
SWIDTH 810 0
DWIDTH 26 0
BBX 25 19 -1 0
BITMAP
003FC300
01FFE700
0FFFF780
3FFFEF80
3FE00F80
1F800F80
0F800F80
07800F00
0F021F00
7FFC1F00
7FFE1F00
FFFE1E00
7FFC1E00
7F801E00
3C003E00
3C001E00
78001E00
38001E00
38000E00
ENDCHAR
STARTCHAR fl
ENCODING 64258
SWIDTH 1012 0
DWIDTH 32 0
BBX 33 20 -1 -1
BITMAP
003FC70000
01FFE78000
0FFFFFC000
3FFFEF8000
3FE00F8000
1F801F0000
0F801F0000
07801F0000
0F023E0000
7FFC3E0000
7FFE3E0000
FFFE7C0000
7FFC7C0000
7F807C0000
3C007FFC00
3C007FFF00
78007FFF80
38003FFF80
38003F8200
0000080000
ENDCHAR
STARTCHAR .notdef
ENCODING -1
SWIDTH 370 0
DWIDTH 12 0
BBX 1 1 0 0
BITMAP
00
ENDCHAR
ENDFONT
